{
  "source": "C:\\Users\\Peter\\Desktop\\stuff\\MIUN\\quantitative_research\\video_compression\\videos\\BVI-HD\\BVI-HD_CDVL_videos\\ORIG\\FishAndRock_1920x1080_30fps.mp4",
  "output": "C:\\Users\\Peter\\Desktop\\stuff\\MIUN\\quantitative_research\\video_compression\\compressed_videos\\BVI-HD\\vp9\\3\\FishAndRock_1920x1080_30fps_vp9.webm",
  "codec": "vp9",
  "ok": "Input #0, mov,mp4,m4a,3gp,3g2,mj2, from 'C:\\Users\\Peter\\Desktop\\stuff\\MIUN\\quantitative_research\\video_compression\\videos\\BVI-HD\\BVI-HD_CDVL_videos\\ORIG\\FishAndRock_1920x1080_30fps.mp4':\n  Metadata:\n    major_brand     : isom\n    minor_version   : 512\n    compatible_brands: isomiso2avc1mp41\n    encoder         : Lavf54.28.101\n  Duration: 00:00:05.00, start: 0.000000, bitrate: 251564 kb/s\n  Stream #0:0[0x1](und): Video: h264 (High 4:4:4 Predictive) (avc1 / 0x31637661), yuv420p(progressive), 1920x1080, 251561 kb/s, 30 fps, 30 tbr, 30 tbn (default)\n    Metadata:\n      handler_name    : VideoHandler\n      vendor_id       : [0][0][0][0]\n[out#0/webm @ 000002266c7e9240] Codec AVOption b:a (set bitrate (in bits/s)) has not been used for any stream. The most likely reason is either wrong type (e.g. a video option with no video streams) or that it is a private option of some decoder which was not actually used for any stream.\nStream mapping:\n  Stream #0:0 -> #0:0 (h264 (native) -> vp9 (libvpx-vp9))\nPress [q] to stop, [?] for help\n[libvpx-vp9 @ 000002266d2904c0] v1.15.2-100-g40561f514\nOutput #0, webm, to 'C:\\Users\\Peter\\Desktop\\stuff\\MIUN\\quantitative_research\\video_compression\\compressed_videos\\BVI-HD\\vp9\\3\\FishAndRock_1920x1080_30fps_vp9.webm':\n  Metadata:\n    major_brand     : isom\n    minor_version   : 512\n    compatible_brands: isomiso2avc1mp41\n    encoder         : Lavf62.3.100\n  Stream #0:0(und): Video: vp9, yuv420p(tv, progressive), 1920x1080, q=2-31, 3000 kb/s, 30 fps, 1k tbn (default)\n    Metadata:\n      encoder         : Lavc62.11.100 libvpx-vp9\n      handler_name    : VideoHandler\n      vendor_id       : [0][0][0][0]\n    Side data:\n      cpb: bitrate max/min/avg: 0/0/0 buffer size: 3000000 vbv_delay: N/A\nframe=    0 fps=0.0 q=0.0 size=       0KiB time=N/A bitrate=N/A speed=N/A elapsed=0:00:00.52    \nframe=    5 fps=4.3 q=42.0 size=       1KiB time=00:00:00.16 bitrate=  30.4kbits/s speed=0.144x elapsed=0:00:01.15    \nframe=   10 fps=5.9 q=41.0 size=       1KiB time=00:00:00.33 bitrate=  15.2kbits/s speed=0.196x elapsed=0:00:01.70    \nframe=   15 fps=6.8 q=39.0 size=       1KiB time=00:00:00.50 bitrate=  10.1kbits/s speed=0.225x elapsed=0:00:02.22    \nframe=   20 fps=7.3 q=40.0 size=       1KiB time=00:00:00.66 bitrate=   7.6kbits/s speed=0.243x elapsed=0:00:02.74    \nframe=   25 fps=7.7 q=36.0 size=       1KiB time=00:00:00.83 bitrate=   6.1kbits/s speed=0.255x elapsed=0:00:03.26    \nframe=   30 fps=7.9 q=36.0 size=       1KiB time=00:00:01.00 bitrate=   5.1kbits/s speed=0.264x elapsed=0:00:03.79    \nframe=   35 fps=8.1 q=34.0 size=       1KiB time=00:00:01.16 bitrate=   4.3kbits/s speed=0.27x elapsed=0:00:04.32    \nframe=   40 fps=8.3 q=36.0 size=       1KiB time=00:00:01.33 bitrate=   3.8kbits/s speed=0.275x elapsed=0:00:04.84    \nframe=   44 fps=8.2 q=33.0 size=       1KiB time=00:00:01.46 bitrate=   3.5kbits/s speed=0.273x elapsed=0:00:05.37    \nframe=   49 fps=8.3 q=32.0 size=       1KiB time=00:00:01.63 bitrate=   3.1kbits/s speed=0.277x elapsed=0:00:05.89    \nframe=   53 fps=8.3 q=30.0 size=       1KiB time=00:00:01.76 bitrate=   2.9kbits/s speed=0.275x elapsed=0:00:06.42    \nframe=   57 fps=8.2 q=31.0 size=       1KiB time=00:00:01.90 bitrate=   2.7kbits/s speed=0.274x elapsed=0:00:06.92    \nframe=   62 fps=8.3 q=36.0 size=       1KiB time=00:00:02.06 bitrate=   2.5kbits/s speed=0.277x elapsed=0:00:07.45    \nframe=   66 fps=8.3 q=33.0 size=       1KiB time=00:00:02.20 bitrate=   2.3kbits/s speed=0.275x elapsed=0:00:07.98    \nframe=   70 fps=8.2 q=33.0 size=       1KiB time=00:00:02.33 bitrate=   2.2kbits/s speed=0.274x elapsed=0:00:08.50    \nframe=   75 fps=8.3 q=30.0 size=       1KiB time=00:00:02.50 bitrate=   2.0kbits/s speed=0.277x elapsed=0:00:09.03    \nframe=   80 fps=8.4 q=32.0 size=       1KiB time=00:00:02.66 bitrate=   1.9kbits/s speed=0.279x elapsed=0:00:09.54    \nframe=   84 fps=8.3 q=32.0 size=       1KiB time=00:00:02.80 bitrate=   1.8kbits/s speed=0.278x elapsed=0:00:10.08    \nframe=   89 fps=8.4 q=34.0 size=       1KiB time=00:00:02.96 bitrate=   1.7kbits/s speed=0.28x elapsed=0:00:10.59    \nframe=   93 fps=8.4 q=33.0 size=       1KiB time=00:00:03.10 bitrate=   1.6kbits/s speed=0.278x elapsed=0:00:11.13    \nframe=   97 fps=8.3 q=25.0 size=       1KiB time=00:00:03.23 bitrate=   1.6kbits/s speed=0.277x elapsed=0:00:11.65    \nframe=  102 fps=8.4 q=34.0 size=       1KiB time=00:00:03.40 bitrate=   1.5kbits/s speed=0.279x elapsed=0:00:12.18    \nframe=  106 fps=8.3 q=33.0 size=       1KiB time=00:00:03.53 bitrate=   1.4kbits/s speed=0.278x elapsed=0:00:12.73    \nframe=  111 fps=8.4 q=33.0 size=       1KiB time=00:00:03.70 bitrate=   1.4kbits/s speed=0.279x elapsed=0:00:13.24    \nframe=  116 fps=8.4 q=35.0 size=       1KiB time=00:00:03.86 bitrate=   1.3kbits/s speed=0.281x elapsed=0:00:13.77    \nframe=  120 fps=8.4 q=35.0 size=       1KiB time=00:00:04.00 bitrate=   1.3kbits/s speed=0.28x elapsed=0:00:14.28    \nframe=  124 fps=8.4 q=34.0 size=       1KiB time=00:00:04.13 bitrate=   1.2kbits/s speed=0.279x elapsed=0:00:14.82    \nframe=  126 fps=8.2 q=35.0 size=       1KiB time=00:00:04.20 bitrate=   1.2kbits/s speed=0.273x elapsed=0:00:15.36    \nframe=  126 fps=7.9 q=35.0 size=       1KiB time=00:00:04.20 bitrate=   1.2kbits/s speed=0.264x elapsed=0:00:15.90    \nframe=  126 fps=7.7 q=35.0 size=       1KiB time=00:00:04.20 bitrate=   1.2kbits/s speed=0.256x elapsed=0:00:16.42    \nframe=  126 fps=7.4 q=35.0 size=       1KiB time=00:00:04.20 bitrate=   1.2kbits/s speed=0.248x elapsed=0:00:16.95    \nframe=  126 fps=7.2 q=35.0 size=       1KiB time=00:00:04.20 bitrate=   1.2kbits/s speed=0.24x elapsed=0:00:17.46    \n[out#0/webm @ 000002266c7e9240] video:1990KiB audio:0KiB subtitle:0KiB other streams:0KiB global headers:0KiB muxing overhead: 0.086618%\nframe=  150 fps=8.4 q=33.0 Lsize=    1992KiB time=00:00:05.00 bitrate=3263.1kbits/s speed=0.281x elapsed=0:00:17.79    \n",
  "seconds": 18.06940770149231,
  "probe_out": {}
}